<?xml version="1.0" encoding="UTF-8" standalone="no"?>
<!DOCTYPE svg PUBLIC "-//W3C//DTD SVG 1.1//EN" "http://www.w3.org/Graphics/SVG/1.1/DTD/svg11.dtd">
<svg xmlns="http://www.w3.org/2000/svg" version="1.1" viewBox="0.00 0.00 256.00 256.00">
<g stroke-width="2.00" fill="none" stroke-linecap="butt">
<path stroke="#88772d" vector-effect="non-scaling-stroke" d="
  M 110.66 53.24
  Q 110.68 53.70 110.85 54.07"
/>
<path stroke="#88772d" vector-effect="non-scaling-stroke" d="
  M 110.84 75.20
  L 110.76 94.04"
/>
<path stroke="#88772d" vector-effect="non-scaling-stroke" d="
  M 74.19 140.20
  Q 74.55 138.81 74.07 137.96"
/>
<path stroke="#88772d" vector-effect="non-scaling-stroke" d="
  M 74.06 45.84
  Q 74.49 44.85 74.18 43.30"
/>
<path stroke="#88772d" vector-effect="non-scaling-stroke" d="
  M 125.14 103.26
  L 125.08 101.52"
/>
<path stroke="#88772d" vector-effect="non-scaling-stroke" d="
  M 125.09 94.79
  L 125.10 91.54"
/>
<path stroke="#88772d" vector-effect="non-scaling-stroke" d="
  M 125.14 89.74
  L 125.28 83.30"
/>
<path stroke="#88772d" vector-effect="non-scaling-stroke" d="
  M 127.29 81.18
  Q 127.79 81.20 128.21 81.03"
/>
<path stroke="#88772d" vector-effect="non-scaling-stroke" d="
  M 133.54 175.87
  L 134.20 175.93"
/>
<path stroke="#88772d" vector-effect="non-scaling-stroke" d="
  M 72.92 211.71
  Q 72.85 211.84 72.83 211.98
  A 0.26 0.25 81.1 0 0 73.18 212.24
  L 73.53 212.09"
/>
<path stroke="#88772d" vector-effect="non-scaling-stroke" d="
  M 76.47 212.09
  Q 77.82 212.49 79.05 212.10"
/>
<path stroke="#88772d" vector-effect="non-scaling-stroke" d="
  M 79.44 212.16
  L 92.21 212.23"
/>
<path stroke="#88772d" vector-effect="non-scaling-stroke" d="
  M 143.12 214.22
  L 143.09 211.96"
/>
<path stroke="#88772d" vector-effect="non-scaling-stroke" d="
  M 157.34 183.33
  L 157.26 178.02"
/>
<path stroke="#88772d" vector-effect="non-scaling-stroke" d="
  M 99.8814 87.0985
  A 5.05 3.90 -85.1 0 0 95.5643 91.7969
  A 5.05 3.90 -85.1 0 0 99.0186 97.1615
  A 5.05 3.90 -85.1 0 0 103.3357 92.4631
  A 5.05 3.90 -85.1 0 0 99.8814 87.0985"
/>
</g>
<path fill="#ffb11a" d="
  M 132.38 37.98
  L 65.51 37.98
  A 0.57 0.57 0.0 0 0 64.94 38.55
  L 64.94 145.43
  A 0.53 0.53 0.0 0 0 65.47 145.96
  L 132.58 145.96
  A 0.42 0.42 0.0 0 0 133.00 145.54
  L 133.00 113.76
  A 0.68 0.68 0.0 0 1 133.68 113.08
  L 144.10 113.08
  A 0.88 0.88 0.0 0 1 144.98 113.96
  L 144.98 152.45
  A 2.35 2.31 -29.7 0 1 144.64 153.66
  Q 142.04 158.03 136.50 158.00
  Q 125.80 157.93 59.84 157.93
  Q 56.82 157.93 53.80 154.46
  A 2.14 2.12 19.1 0 1 53.33 153.50
  Q 53.03 152.05 53.02 147.25
  Q 52.93 57.08 53.08 32.25
  C 53.11 27.82 57.74 26.08 61.46 26.07
  Q 99.25 25.99 137.00 26.02
  C 140.58 26.02 144.89 28.20 144.94 32.27
  Q 145.02 38.94 144.97 73.28
  A 0.71 0.71 0.0 0 1 144.26 73.99
  L 133.56 73.99
  A 0.54 0.54 0.0 0 1 133.02 73.45
  L 133.02 38.61
  A 0.64 0.63 -0.0 0 0 132.38 37.98
  Z"
/>
<path fill="#ffb11a" d="
  M 110.66 53.24
  Q 110.68 53.70 110.85 54.07
  L 110.84 75.20
  L 110.76 94.04
  Q 110.87 110.75 110.92 127.50
  Q 110.93 130.53 110.09 133.03
  A 1.63 1.62 2.0 0 1 108.95 134.09
  L 75.78 142.42
  A 1.11 1.11 0.0 0 1 74.60 141.99
  Q 74.13 141.35 74.19 140.20
  Q 74.55 138.81 74.07 137.96
  L 74.06 45.84
  Q 74.49 44.85 74.18 43.30
  Q 74.19 42.28 74.66 41.74
  A 1.06 1.06 0.0 0 1 75.72 41.41
  L 108.76 49.75
  A 1.82 1.80 80.0 0 1 109.83 50.51
  Q 110.58 51.67 110.66 53.24
  Z
  M 99.8814 87.0985
  A 5.05 3.90 -85.1 0 0 95.5643 91.7969
  A 5.05 3.90 -85.1 0 0 99.0186 97.1615
  A 5.05 3.90 -85.1 0 0 103.3357 92.4631
  A 5.05 3.90 -85.1 0 0 99.8814 87.0985
  Z"
/>
<path fill="#103c40" d="
  M 74.18 43.30
  Q 74.49 44.85 74.06 45.84
  L 74.18 43.30
  Z"
/>
<path fill="#103c40" d="
  M 110.85 54.07
  Q 110.68 53.70 110.66 53.24
  Q 111.04 53.40 110.85 54.07
  Z"
/>
<path fill="#ffb11a" d="
  M 125.14 103.26
  L 125.08 101.52
  L 125.09 94.79
  L 125.10 91.54
  L 125.14 89.74
  L 125.28 83.30
  L 127.29 81.18
  Q 127.79 81.20 128.21 81.03
  L 172.61 81.02
  A 0.41 0.41 0.0 0 0 173.02 80.61
  Q 172.99 71.83 173.02 65.99
  Q 173.04 61.66 175.97 60.95
  A 1.91 1.88 49.7 0 1 177.18 61.06
  Q 179.47 62.09 180.75 63.30
  Q 191.70 73.65 206.90 89.60
  Q 208.59 91.38 209.11 92.86
  A 2.92 2.92 0.0 0 1 208.47 95.85
  Q 196.97 107.88 179.99 124.48
  Q 178.93 125.52 178.40 125.95
  Q 176.46 127.54 174.05 125.53
  A 2.91 2.90 -70.1 0 1 173.01 123.30
  L 173.01 106.63
  A 0.62 0.61 -90.0 0 0 172.40 106.01
  Q 163.87 106.00 128.27 105.94
  Q 126.05 105.94 125.14 103.26
  Z"
/>
<path fill="#103c40" d="
  M 110.84 75.20
  L 110.76 94.04
  L 110.84 75.20
  Z"
/>
<path fill="#103c40" d="
  M 128.21 81.03
  Q 127.79 81.20 127.29 81.18
  L 128.21 81.03
  Z"
/>
<path fill="#103c40" d="
  M 125.28 83.30
  L 125.14 89.74
  L 125.28 83.30
  Z"
/>
<ellipse fill="#103c40" cx="0.00" cy="0.00" transform="translate(99.45,92.13) rotate(-85.1)" rx="5.05" ry="3.90"/>
<path fill="#103c40" d="
  M 125.09 94.79
  L 125.10 91.54
  L 125.09 94.79
  Z"
/>
<path fill="#103c40" d="
  M 125.14 103.26
  L 125.08 101.52
  L 125.14 103.26
  Z"
/>
<path fill="#103c40" d="
  M 74.19 140.20
  L 74.07 137.96
  Q 74.55 138.81 74.19 140.20
  Z"
/>
<path fill="#ffb11a" d="
  M 133.54 175.87
  L 134.20 175.93
  Q 136.11 175.80 137.77 176.34
  A 0.52 0.51 -63.7 0 1 138.03 177.13
  L 124.17 197.32
  A 1.75 1.75 0.0 0 0 124.16 199.27
  L 138.08 220.15
  A 0.63 0.62 73.3 0 1 137.56 221.12
  L 127.73 221.12
  A 1.06 1.04 -16.5 0 1 126.85 220.65
  L 117.54 206.68
  A 0.55 0.55 0.0 0 0 116.62 206.69
  L 107.53 220.90
  A 0.45 0.44 15.7 0 1 107.15 221.11
  L 95.98 221.11
  A 0.13 0.12 -72.8 0 1 95.88 220.91
  L 110.67 199.38
  A 1.67 1.66 45.4 0 0 110.68 197.51
  L 96.89 176.81
  A 0.56 0.56 0.0 0 1 97.35 175.94
  L 106.76 175.94
  A 1.42 1.40 73.0 0 1 107.93 176.57
  L 117.15 190.40
  A 0.33 0.33 0.0 0 0 117.70 190.41
  L 127.01 176.84
  A 1.97 1.96 16.6 0 1 128.59 175.99
  L 133.54 175.87
  Z"
/>
<path fill="#103c40" d="
  M 134.20 175.93
  L 133.54 175.87
  Q 133.92 175.83 134.20 175.93
  Z"
/>
<path fill="#ffb11a" d="
  M 72.92 211.71
  Q 72.85 211.84 72.83 211.98
  A 0.26 0.25 81.1 0 0 73.18 212.24
  L 73.53 212.09
  L 76.47 212.09
  Q 77.82 212.49 79.05 212.10
  Q 79.61 212.05 79.44 212.16
  L 92.21 212.23
  C 93.44 214.13 92.99 218.25 92.89 220.26
  A 0.77 0.77 0.0 0 1 92.12 221.00
  L 63.32 221.00
  A 0.31 0.30 90.0 0 1 63.02 220.69
  L 63.02 176.58
  A 0.55 0.55 0.0 0 1 63.57 176.03
  L 91.13 176.03
  A 0.85 0.84 0.0 0 1 91.98 176.87
  L 91.98 184.09
  A 0.91 0.90 0.0 0 1 91.07 184.99
  L 73.29 184.99
  A 0.38 0.37 90.0 0 0 72.92 185.37
  L 72.92 193.72
  A 0.32 0.32 0.0 0 0 73.24 194.04
  L 89.68 194.04
  A 0.25 0.25 0.0 0 1 89.93 194.29
  L 89.93 202.62
  A 0.31 0.31 0.0 0 1 89.62 202.93
  L 73.14 202.93
  A 0.25 0.24 90.0 0 0 72.90 203.18
  L 72.92 211.71
  Z"
/>
<path fill="#ffb11a" d="
  M 143.12 214.22
  L 143.09 211.96
  L 143.18 177.35
  A 1.31 1.31 0.0 0 1 144.49 176.04
  L 151.67 176.04
  A 1.32 1.32 0.0 0 1 152.99 177.36
  L 152.99 219.38
  A 1.74 1.74 0.0 0 1 151.25 221.12
  L 145.00 221.12
  A 1.89 1.88 -0.0 0 1 143.11 219.24
  L 143.12 214.22
  Z"
/>
<path fill="#ffb11a" d="
  M 157.34 183.33
  L 157.26 178.02
  Q 157.19 175.95 159.25 175.96
  Q 181.34 176.09 191.97 176.06
  A 1.98 1.97 89.9 0 1 193.95 178.04
  L 193.95 183.79
  A 1.21 1.20 -90.0 0 1 192.75 185.00
  L 181.29 185.00
  A 0.35 0.35 0.0 0 0 180.94 185.35
  L 180.94 220.57
  A 0.43 0.43 0.0 0 1 180.51 221.00
  L 171.48 221.00
  A 0.47 0.47 0.0 0 1 171.01 220.53
  L 171.01 185.61
  A 0.55 0.55 0.0 0 0 170.47 185.06
  Q 161.14 184.93 159.77 184.99
  Q 157.47 185.08 157.34 183.33
  Z"
/>
<path fill="#103c40" d="
  M 157.34 183.33
  Q 156.85 180.64 157.26 178.02
  L 157.34 183.33
  Z"
/>
<path fill="#103c40" d="
  M 72.92 211.71
  Q 73.18 211.99 73.53 212.09
  L 73.18 212.24
  A 0.26 0.25 81.1 0 1 72.83 211.98
  Q 72.85 211.84 72.92 211.71
  Z"
/>
<path fill="#103c40" d="
  M 79.05 212.10
  Q 77.82 212.49 76.47 212.09
  L 79.05 212.10
  Z"
/>
<path fill="#103c40" d="
  M 92.21 212.23
  L 79.44 212.16
  L 92.21 212.23
  Z"
/>
<path fill="#103c40" d="
  M 143.12 214.22
  L 143.09 211.96
  L 143.12 214.22
  Z"
/>
</svg>
